<?xml version="1.0" standalone="no"?>
<!DOCTYPE svg PUBLIC "-//W3C//DTD SVG 1.1//EN" "http://www.w3.org/Graphics/SVG/1.1/DTD/svg11.dtd" >
<!--
2014-1-12: Created.
-->
<svg xmlns="http://www.w3.org/2000/svg">
<metadata>
Created by FontForge 20120731 at Sun Jan 12 18:57:52 2014
 By Paul Straw
Created by Paul Straw with FontForge 2.0 (http://fontforge.sf.net)
</metadata>
<defs>
<font id="fontcustom" horiz-adv-x="512" >
  <font-face 
    font-family="fontcustom"
    font-weight="500"
    font-stretch="normal"
    units-per-em="512"
    panose-1="2 0 6 9 0 0 0 0 0 0"
    ascent="448"
    descent="-64"
    bbox="-9.43378e-05 -64 512.011 448.315"
    underline-thickness="25.6"
    underline-position="-51.2"
    unicode-range="U+F100-F118"
  />
    <missing-glyph />
    <glyph glyph-name="uniF102" unicode="&#xf102;" 
d="M112 384c-8.83203 0 -16 7.16797 -16 16v32c0 8.83203 7.16797 16 16 16h32c8.83203 0 16 -7.16797 16 -16v-32c0 -8.83203 -7.16797 -16 -16 -16h-32zM368 384c-8.83203 0 -16 7.16797 -16 16v32c0 8.83203 7.16797 16 16 16h32c8.83203 0 16 -7.16797 16 -16v-32
c0 -8.83203 -7.16797 -16 -16 -16h-32zM512 288h-512v128c0 17.6963 14.3359 32 32 32h16c8.83203 0 16 -7.16797 16 -16v-64c0 -8.83203 7.16797 -16 16 -16h96c8.83203 0 16 7.16797 16 16v64c0 8.83203 7.16797 16 16 16h96c8.83203 0 16 -7.16797 16 -16v-64
c0 -8.83203 7.16797 -16 16 -16h96c8.83203 0 16 7.16797 16 16v64c0 8.83203 7.16797 16 16 16h16c17.6641 0 32 -14.3037 32 -32v-128zM0 224h512v-256c0 -17.6963 -14.3359 -32 -32 -32h-448c-17.6641 0 -32 14.3037 -32 32v256z" />
    <glyph glyph-name="uniF104" unicode="&#xf104;" 
d="M421.12 192h-293.12v-64h319.232c17.8877 0 32.3838 -14.3037 32.3838 -32s-14.4639 -32 -32.3838 -32h-350.049c-17.9199 0 -33.1836 14.3037 -33.1836 32v288h-31.6162c-17.8877 0 -32.3838 14.3037 -32.3838 32s14.4961 32 32.416 32h453.472
c17.8887 0 29.2158 -14.0156 25.376 -31.2324l-50.752 -193.504c-3.83984 -17.248 -21.5039 -31.2637 -39.3916 -31.2637zM144 32c26.5283 0 48 -21.5039 48 -48s-21.5039 -48 -48 -48s-48 21.5039 -48 48s21.5039 48 48 48zM400 32c26.5283 0 48 -21.5039 48 -48
s-21.5039 -48 -48 -48c-26.5283 0 -48 21.5039 -48 48s21.4717 48 48 48z" />
    <glyph glyph-name="uniF116" unicode="&#xf116;" 
d="M480 448c17.6641 0 32 -14.3037 32 -32v-448c0 -17.6963 -14.3359 -32 -32 -32h-448c-17.6641 0 -32 14.3037 -32 32v448c0 17.6963 14.3359 32 32 32h448zM411.872 219.68c7.10352 7.2959 4.7998 14.4004 -5.12012 15.9043l-98.2715 14.9443l-44.5449 94.4961
c-4.38379 9.2793 -11.4551 9.2793 -15.8398 0l-44.5762 -94.4961l-98.2715 -14.9443c-9.95215 -1.50391 -12.2559 -8.6084 -5.12012 -15.9043l71.2324 -72.6719l-16.96 -103.424c-1.66406 -10.1758 4.19141 -14.4004 13.0557 -9.53613l88.5439 48.7041l88.5439 -48.7363
c8.86426 -4.86328 14.6885 -0.607422 13.0557 9.56836l-16.96 103.424z" />
    <glyph glyph-name="uniF108" unicode="&#xf108;" 
d="M480 384c17.5996 0 32 -14.4004 32 -32v-384c0 -17.5996 -14.4004 -32 -32 -32h-448c-17.5996 0 -32 14.4004 -32 32v448c0 17.5996 14.4004 32 32 32h160c17.5996 0 32 -14.4004 32 -32v-32h256z" />
    <glyph glyph-name="uniF106" unicode="&#xf106;" 
d="M480 448c17.6641 0 32 -14.3037 32 -32v-448c0 -17.6963 -14.3359 -32 -32 -32h-448c-17.6641 0 -32 14.3037 -32 32v448c0 17.6963 14.3359 32 32 32h448zM192 64l160 160l-64 64l-160 -160v-64h64zM407.136 279.136c12.4805 12.4805 12.4805 32.7363 0 45.248
l-18.752 18.752c-12.5117 12.5127 -32.7354 12.5127 -45.248 0l-23.1357 -23.1357l64 -64z" />
    <glyph glyph-name="uniF103" unicode="&#xf103;" 
d="M446.944 117.952l53.0879 -53.1523c14.6562 -14.6875 14.6562 -38.4961 0 -53.1836l-66.3359 -66.4326c-7.32812 -7.35938 -21.4404 -11.168 -31.3281 -8c-87.0078 27.5205 -179.616 86.3359 -247.296 154.177c-67.7441 67.8721 -126.433 160.607 -153.952 247.775
c-3.13574 9.88867 0.639648 24 7.96777 31.3281l66.4004 66.4961c14.6553 14.6885 38.3994 14.6562 53.0557 0l53.0557 -53.1836c14.6562 -14.6562 14.6562 -38.4961 0 -53.1846l-26.5273 -26.5596c-14.6562 -14.6885 -14.6562 -38.4961 0 -53.1846l159.2 -159.487
c14.6553 -14.6885 38.3994 -14.6885 53.0557 0l26.5283 26.5918c14.6875 14.6875 38.4316 14.6875 53.0879 0z" />
    <glyph glyph-name="uniF113" unicode="&#xf113;" 
d="M480 448c17.6963 0 32 -14.3037 32 -32v-448c0 -17.6963 -14.3037 -32 -32 -32h-448c-17.6963 0 -32 14.3037 -32 32v448c0 17.6963 14.3037 32 32 32h448zM192 80v224c0 8.83203 -7.16797 16 -16 16h-32c-8.83203 0 -16 -7.16797 -16 -16v-224
c0 -8.83203 7.16797 -16 16 -16h32c8.83203 0 16 7.16797 16 16zM378.592 114.56l-73.4717 76.96l74.3994 77.8887c6.04883 6.33594 6.04883 16.6074 0 22.9121l-21.8877 22.9434c-6.04785 6.30469 -15.8721 6.30469 -21.8877 0l-107.2 -112.256
c-6.01562 -6.33594 -6.01562 -16.6074 0 -22.9434l106.272 -111.328c6.04785 -6.36816 15.8398 -6.36816 21.8877 0l21.8877 22.9434c6.04785 6.30469 6.04785 16.5762 0 22.8799z" />
    <glyph glyph-name="uniF114" unicode="&#xf114;" 
d="M256 448c141.376 0 256 -114.624 256 -256s-114.624 -256 -256 -256s-256 114.624 -256 256s114.624 256 256 256zM224 119.616v147.52c0 20.3525 -12.0645 26.9121 -28.3203 14.7207l-87.9678 -66.4004c-7.83984 -5.85645 -11.584 -13.5361 -11.7119 -21.2803v-1.53613
c0.383789 -7.77539 4.41602 -15.4873 12.3203 -21.4072l87.3594 -66.4326c16.2559 -12.1914 28.3203 -5.59961 28.3203 14.8164zM384 119.616v147.52c0 20.3525 -12.0645 26.9121 -28.3516 14.7207l-87.9365 -66.4004c-7.83984 -5.85645 -11.584 -13.5361 -11.7119 -21.2803
v-1.53613c0.383789 -7.77539 4.41602 -15.4873 12.3203 -21.4072l87.3594 -66.4326c16.2559 -12.1914 28.3203 -5.59961 28.3203 14.8164z" />
    <glyph glyph-name="uniF107" unicode="&#xf107;" 
d="M464 352c8.83203 0 16 -7.16797 16 -16v-32c0 -8.86426 -7.16797 -16 -16 -16h-416c-8.83203 0 -16 7.13574 -16 16v32c0 8.83203 7.16797 16 16 16h416zM432 448c8.83203 0 16 -7.16797 16 -16v-32c0 -8.83203 -7.16797 -16 -16 -16h-352c-8.83203 0 -16 7.16797 -16 16
v32c0 8.83203 7.16797 16 16 16h352zM0 240c0 8.83203 7.16797 16 16 16h480c8.83203 0 16 -7.16797 16 -16v-288c0 -8.83203 -7.16797 -16 -16 -16h-480c-8.83203 0 -16 7.16797 -16 16v288zM352 64c17.6641 0 32 14.3037 32 32v80c0 8.83203 -7.16797 16 -16 16h-32
c-8.83203 0 -16 -7.16797 -16 -16v-32c0 -8.83203 -7.16797 -16 -16 -16h-96c-8.83203 0 -16 7.16797 -16 16v32c0 8.83203 -7.16797 16 -16 16h-32c-8.83203 0 -16 -7.16797 -16 -16v-80c0 -17.6963 14.3359 -32 32 -32h192z" />
    <glyph glyph-name="uniF115" unicode="&#xf115;" 
d="M447.968 223.968h32c17.6963 0 32 -14.3037 32 -32c0 -17.6953 -14.3037 -32 -32 -32h-32c-17.6953 0 -34.5596 -14.1436 -41.3115 -30.3994c-6.75195 -16.2568 -4.83203 -38.1768 7.67969 -50.6885l22.6562 -22.6562
c12.4795 -12.4795 12.4482 -32.7354 -0.0644531 -45.248c-12.4473 -12.5117 -32.7041 -12.5117 -45.2158 0l-22.624 22.624c-12.5117 12.4805 -34.4316 14.4326 -50.6875 7.68066c-16.2246 -6.68848 -30.4326 -23.5527 -30.4326 -41.248v-32.0322
c0 -17.6641 -14.3037 -31.9678 -32 -31.9678c-17.6641 -0.0322266 -32 14.3037 -32 31.9678v32c0 17.6963 -14.1436 34.5596 -30.3994 41.3115c-16.2881 6.75293 -38.1768 4.83203 -50.6885 -7.67969l-22.6562 -22.6562
c-12.4795 -12.4795 -32.7354 -12.4795 -45.248 0.0322266c-12.4795 12.4482 -12.5117 32.7363 0 45.248l25.0566 24.6406c12.6396 12.3838 14.4639 33.9199 6.62402 49.4717c-7.80859 15.584 -24.9287 29.5996 -42.5918 29.5996h-32.0322c-17.6641 0 -32 14.3047 -32 32
c0 17.6318 14.3359 32 32 32l35.1035 -0.319336c17.6318 -0.192383 34.2725 13.7275 39.7119 30.3037c5.50391 16.5762 3.32812 38.5918 -9.18359 51.1035l-22.6885 22.6562c-12.4795 12.5117 -12.4795 32.7686 0.0322266 45.248c12.4482 12.4805 32.7041 12.5117 45.2158 0
l22.6885 -22.624c12.5117 -12.4795 34.3994 -14.4316 50.6562 -7.67969c16.2559 6.75195 30.3994 23.6162 30.3994 41.3115v32c0 17.6963 14.3047 32 32 32c17.6963 0 32 -14.3037 32 -32v-32c0 -17.6953 14.208 -34.5596 30.4326 -41.2793
c16.2559 -6.7207 38.1758 -4.80078 50.6875 7.71191l22.624 22.624c12.5117 12.5117 32.7686 12.5117 45.2803 0c12.4795 -12.5127 12.4795 -32.7686 -0.0322266 -45.2803l-22.624 -22.5918c-12.4795 -12.5127 -14.4004 -34.4639 -7.67969 -50.7207
c6.75195 -16.2881 23.6162 -30.4639 41.3115 -30.4639zM255.968 127.968c35.2959 0 64 28.7363 64 64c0 35.2646 -28.7041 64 -64 64s-64 -28.7354 -64 -64c0 -35.2637 28.7041 -64 64 -64z" />
    <glyph glyph-name="uniF100" unicode="&#xf100;" 
d="M416 448c17.6963 0 32 -14.3037 32 -32v-448c0 -17.6963 -14.3037 -32 -32 -32h-384c-17.6963 0 -32 14.3037 -32 32v448c0 17.6963 14.3037 32 32 32h384zM96 336v-32c0 -8.83203 7.16797 -16 16 -16h160c8.83203 0 16 7.16797 16 16v32c0 8.83203 -7.16797 16 -16 16
h-160c-8.83203 0 -16 -7.16797 -16 -16zM288 112v32c0 8.83203 -7.16797 16 -16 16h-160c-8.83203 0 -16 -7.16797 -16 -16v-32c0 -8.83203 7.16797 -16 16 -16h160c8.83203 0 16 7.16797 16 16zM352 208v32c0 8.83203 -7.16797 16 -16 16h-224
c-8.83203 0 -16 -7.16797 -16 -16v-32c0 -8.83203 7.16797 -16 16 -16h224c8.83203 0 16 7.16797 16 16z" />
    <glyph glyph-name="uniF109" unicode="&#xf109;" 
d="M32 -64c-17.6641 0 -32 14.3359 -32 32v64c0 17.6641 14.3359 32 32 32h64c17.6641 0 32 -14.3359 32 -32v-64c0 -17.6641 -14.3359 -32 -32 -32h-64zM224 -64c-17.6641 0 -32 14.3359 -32 32v64c0 17.6641 14.3359 32 32 32h64c17.6963 0 32 -14.3359 32 -32v-64
c0 -17.6641 -14.3037 -32 -32 -32h-64zM416 -64c-17.6963 0 -32 14.3359 -32 32v64c0 17.6641 14.3037 32 32 32h64c17.6963 0 32 -14.3359 32 -32v-64c0 -17.6641 -14.3037 -32 -32 -32h-64zM32 320c-17.6641 0 -32 14.3359 -32 32v64c0 17.6641 14.3359 32 32 32h64
c17.6641 0 32 -14.3359 32 -32v-64c0 -17.6641 -14.3359 -32 -32 -32h-64zM224 320c-17.6641 0 -32 14.3359 -32 32v64c0 17.6641 14.3359 32 32 32h64c17.6963 0 32 -14.3359 32 -32v-64c0 -17.6641 -14.3037 -32 -32 -32h-64zM384 416c0 17.6641 14.3037 32 32 32h64
c17.6963 0 32 -14.3359 32 -32v-64c0 -17.6641 -14.3037 -32 -32 -32h-64c-17.6963 0 -32 14.3359 -32 32v64zM32 128c-17.6641 0 -32 14.3359 -32 32v64c0 17.6641 14.3359 32 32 32h64c17.6641 0 32 -14.3359 32 -32v-64c0 -17.6641 -14.3359 -32 -32 -32h-64zM224 128
c-17.6641 0 -32 14.3359 -32 32v64c0 17.6641 14.3359 32 32 32h64c17.6963 0 32 -14.3359 32 -32v-64c0 -17.6641 -14.3037 -32 -32 -32h-64zM416 128c-17.6963 0 -32 14.3359 -32 32v64c0 17.6641 14.3037 32 32 32h64c17.6963 0 32 -14.3359 32 -32v-64
c0 -17.6641 -14.3037 -32 -32 -32h-64z" />
    <glyph glyph-name="uniF10B" unicode="&#xf10b;" 
d="M480 448c17.6963 0 32 -14.3037 32 -32v-448c0 -17.6963 -14.3037 -32 -32 -32h-448c-17.6963 0 -32 14.3037 -32 32v448c0 17.6963 14.3037 32 32 32h448zM352 272v32c0 8.83203 -7.16797 16 -16 16h-192c-8.83203 0 -16 -7.16797 -16 -16v-32
c0 -8.83203 7.16797 -16 16 -16h192c8.83203 0 16 7.16797 16 16zM320 80v32c0 8.83203 -7.16797 16 -16 16h-160c-8.83203 0 -16 -7.16797 -16 -16v-32c0 -8.83203 7.16797 -16 16 -16h160c8.83203 0 16 7.16797 16 16zM384 176v32c0 8.83203 -7.16797 16 -16 16h-224
c-8.83203 0 -16 -7.16797 -16 -16v-32c0 -8.83203 7.16797 -16 16 -16h224c8.83203 0 16 7.16797 16 16z" />
    <glyph glyph-name="uniF10A" unicode="&#xf10a;" 
d="M288 448c17.6963 0 32 -14.3037 32 -32v-448c0 -17.6963 -14.3037 -32 -32 -32h-256c-17.6963 0 -32 14.3037 -32 32v448c0 17.6963 14.3037 32 32 32h256zM192 -16v32c0 8.83203 -7.16797 16 -16 16h-32c-8.83203 0 -16 -7.16797 -16 -16v-32
c0 -8.83203 7.16797 -16 16 -16h32c8.83203 0 16 7.16797 16 16zM256 64v288h-192v-288h192zM192 384v32h-64v-32h64z" />
    <glyph glyph-name="uniF10C" unicode="&#xf10c;" 
d="M352 224c17.6963 0 32 -14.3037 32 -32v-224c0 -17.6963 -14.3037 -32 -32 -32h-320c-17.6963 0 -32 14.3037 -32 32v224c0 17.6963 14.3037 32 32 32v0v64c0 88.3838 71.6162 160 160 160s160 -71.6162 160 -160v-64v0zM192 384c-52.9277 0 -96 -43.0723 -96 -96v-64
h192v64c0 52.9277 -43.0723 96 -96 96z" />
    <glyph glyph-name="uniF117" unicode="&#xf117;" 
d="M511.712 256h0.288086v-32v-32v-224c0 -17.6963 -14.3037 -32 -32 -32h-448c-17.6963 0 -32 14.3037 -32 32v448c0 17.6963 14.3037 32 32 32h224h32h32v-0.320312c8.35156 0 16.5439 -2.94336 22.624 -9.05566l160 -160
c6.1123 -6.1123 9.05566 -14.3037 9.08789 -22.624zM448 0v224h-128c-17.6963 0 -32 14.3037 -32 32v128h-224v-384h384zM260.672 219.136l22.624 -22.7197c6.24023 -6.27246 6.24023 -16.7041 0 -22.9443l-71.4561 -72.0312l40.8965 -42.0488
c13.8555 -13.8232 9.18359 -27.3916 -10.3682 -27.3916h-123.968c-9.79199 0 -22.4004 12.6084 -22.4004 22.4004v123.936c0 19.6162 13.5361 24.1924 27.3916 10.3359l43.2002 -40.8643l71.4561 71.4561c6.27246 6.24023 16.3838 6.14453 22.624 -0.12793z" />
    <glyph glyph-name="uniF118" unicode="&#xf118;" 
d="M320 177.76v-23.0078c110.368 -17.792 192 -80.2236 192 -154.752v-32c0 -17.6963 -14.3359 -32 -32 -32h-448c-17.6641 0 -32 14.3037 -32 32v32c0 74.5283 81.6318 136.96 192 154.752v23.0078c-38.0801 22.1758 -64 62.9766 -64 110.24v32
c0 70.6885 57.3115 128 128 128s128 -57.3115 128 -128v-32c0 -47.2637 -25.9199 -88.0645 -64 -110.24z" />
    <glyph glyph-name="uniF105" unicode="&#xf105;" 
d="M271.059 417.883c21.9561 0 30.1182 -12.5293 30.1182 -30.1182v-45.1768c0 -8.3125 -6.74707 -15.0586 -15.0596 -15.0586h-150.588c-8.3125 0 -15.0586 6.74609 -15.0586 15.0586v45.1768c0 17.5889 10.6611 30.1182 30.1172 30.1182h30.1182
c0 16.624 13.4629 30.1172 30.1172 30.1172c16.6553 0 30.1182 -13.4932 30.1182 -30.1172h30.1172zM331.294 387.765h60.2354c16.6553 0 30.1182 -13.4629 30.1182 -30.1172v-391.53c0 -16.6543 -13.4629 -30.1172 -30.1182 -30.1172h-361.412
c-16.6543 0 -30.1172 13.4629 -30.1172 30.1172v391.53c0 16.6543 13.4629 30.1172 30.1172 30.1172h60.2354v-75.2939c0 -8.3125 6.74707 -15.0586 15.0596 -15.0586h15.0586h195.765c8.3125 0 15.0586 6.74609 15.0586 15.0586v15.0586v60.2354z" />
    <glyph glyph-name="uniF101" unicode="&#xf101;" 
d="M480 352c17.6963 0 32 -14.3037 32 -32v-64c0 -17.6963 -14.3037 -32 -32 -32h-32v-64c0 -17.6963 -14.3037 -32 -32 -32h-384c-17.6641 0 -32 14.3037 -32 32v256c0 17.6963 14.3359 32 32 32h384c17.6963 0 32 -14.3037 32 -32v-64h32zM160 224v128h-64v-128h64z
M256 224v128h-64v-128h64zM352 224v128h-64v-128h64z" />
    <glyph glyph-name="uniF10F" unicode="&#xf10f;" 
d="M486.4 243.2c14.1309 0 25.5996 -11.4688 25.5996 -25.6006v-51.1992c0 -14.1318 -11.4688 -25.6006 -25.5996 -25.6006h-179.2v-179.2c0 -14.1309 -11.4688 -25.5996 -25.6006 -25.5996h-51.1992c-14.1318 0 -25.6006 11.4688 -25.6006 25.5996v179.2h-179.2
c-14.1309 0 -25.5996 11.4688 -25.5996 25.6006v51.1992c0 14.1318 11.4688 25.6006 25.5996 25.6006h179.2v179.2c0 14.1309 11.4688 25.5996 25.6006 25.5996h51.1992c14.1318 0 25.6006 -11.4688 25.6006 -25.5996v-179.2h179.2z" />
    <glyph glyph-name="uniF112" unicode="&#xf112;" 
d="M505.44 208.832c11.4873 -9.3125 6.5918 -24.416 -4.92871 -33.7598l-64.2881 -74.3682c-11.5518 -9.3125 -20.0312 -4.76855 -20.0312 10.1123v49.3115h-128v-128h48.832c14.9111 0 19.4873 -6.49609 10.1758 -18.0479l-74.3682 -71.4883
c-9.3125 -11.4883 -24.4482 -6.5918 -33.7598 4.89648l-74.3682 64.0957c-9.34375 11.584 -4.76855 20.5762 10.1123 20.5762h49.376v128h-128v-49.2158c0 -14.9121 -6.49609 -19.4883 -18.0488 -10.1768l-71.584 74.3682c-11.5195 9.3125 -6.5918 24.4482 4.92871 33.7607
l64.1602 74.3994c11.5518 9.28027 20.5439 4.73633 20.5439 -10.1436v-48.9922h128v128h-49.248c-14.9121 0 -19.5205 6.04785 -10.1768 17.5996l74.3682 71.6484c9.3125 11.4883 24.4482 6.65625 33.7607 -4.83203l74.3994 -64.3525
c9.3125 -11.5518 4.73633 -20.0635 -10.1436 -20.0635h-48.9287v-128h128v48.8643c0 14.9111 6.0166 19.4873 17.5684 10.1758z" />
    <glyph glyph-name="uniF111" unicode="&#xf111;" 
d="M480 448c17.6963 0 32 -14.3037 32 -32v-448c0 -17.6963 -14.3037 -32 -32 -32h-448c-17.6963 0 -32 14.3037 -32 32v448c0 17.6963 14.3037 32 32 32h448zM384 176v32c0 8.83203 -7.16797 16 -16 16h-80v80c0 8.83203 -7.16797 16 -16 16h-32
c-8.83203 0 -16 -7.16797 -16 -16v-80h-80c-8.83203 0 -16 -7.16797 -16 -16v-32c0 -8.83203 7.16797 -16 16 -16h80v-80c0 -8.83203 7.16797 -16 16 -16h32c8.83203 0 16 7.16797 16 16v80h80c8.83203 0 16 7.16797 16 16z" />
    <glyph glyph-name="uniF110" unicode="&#xf110;" 
d="M256 448c141.376 0 256 -114.624 256 -256s-114.624 -256 -256 -256s-256 114.624 -256 256s114.624 256 256 256zM348.352 160c16.96 0 30.7207 15.0078 30.752 32c0 16.96 -13.792 32 -30.752 32h-60.3516v60.2881c0 16.96 -15.0078 30.7197 -32 30.752
c-16.9922 -0.0322266 -32 -13.792 -32 -30.752v-60.2881h-60.2236c-16.96 0 -30.7207 -15.0078 -30.752 -32c0.03125 -16.9922 13.792 -32 30.752 -32h60.2236v-60.2881c0 -16.96 15.04 -30.752 32 -30.752c16.9922 0.0322266 32 13.792 32 30.752v60.2881h60.3516z" />
    <glyph glyph-name="uniF10D" unicode="&#xf10d;" 
d="M480 448c17.6641 0 32 -14.3037 32 -32v-448c0 -17.6963 -14.3359 -32 -32 -32h-448c-17.6641 0 -32 14.3037 -32 32v448c0 17.6963 14.3359 32 32 32h448zM400 64c8.83203 0 16 7.16797 16 16v32c0 8.83203 -7.16797 16 -16 16h-288c-8.83203 0 -16 -7.16797 -16 -16
v-32c0 -8.83203 7.16797 -16 16 -16h288zM400 160c8.83203 0 16 7.16797 16 16v32c0 8.83203 -7.16797 16 -16 16h-288c-8.83203 0 -16 -7.16797 -16 -16v-32c0 -8.83203 7.16797 -16 16 -16h288zM400 256c8.83203 0 16 7.16797 16 16v32c0 8.83203 -7.16797 16 -16 16h-288
c-8.83203 0 -16 -7.16797 -16 -16v-32c0 -8.83203 7.16797 -16 16 -16h288z" />
    <glyph glyph-name="uniF10E" unicode="&#xf10e;" 
d="M416 414.272c0 9.05566 6.94434 18.1758 15.5195 20.416l49.4404 12.6719c17.1201 4.38379 31.04 -6.75195 31.04 -24.8965v-361.152c0 -18.1436 -13.4082 -38.0156 -29.9521 -44.3838l-196.063 -75.4238c-16.5439 -6.36816 -43.3926 -6.36816 -59.9365 0
l-196.063 75.4238c-16.5762 6.40039 -29.9844 26.2402 -29.9844 44.3838v361.152c0 18.1445 13.9199 29.2803 31.04 24.8965l224.96 -57.7285l48.4805 12.4482c8.5752 2.17578 15.5195 -3.36035 15.5195 -12.4482v-105.504l48 39.8398l48 -39.8076v130.112z" />
  </font>
</defs>
</svg>
